# xmcd
#
# Track frame offsets: 
#        150
#        14590
#        31552
#        47844
#        60819
#        75757
#        89926
#        106880
#        121933
#        136401
#        153642
#
# Disc length: 2234 seconds
#
# Revision: 0
# Processed by: cddbd v1.5.2PL0 Copyright (c) Steve Scherf et al.
# Submitted via: ExactAudioCopy v0.99pb4
#
DISCID=7f08b80b
DTITLE=Various Artist - A Special Steamboat Christmas Gathering
DYEAR=2001
DGENRE=Christmas
TTITLE0=Smokehouse - Christmas For Cowboys
TTITLE1=Tanya Tucker - The Wonder
TTITLE2=Brittany Lamb - Oh, Holy Night
TTITLE3=Alpine Posse - Blue Christmas
TTITLE4=Mark D. Sanders - Star Of Wonder
TTITLE5=Martin Stockdale - Hope
TTITLE6=Sleeping Giant - We Three Kings
TTITLE7=Worried Men - Colorado Christmas
TTITLE8=Billy Dean - Mary, Did You Know
TTITLE9=Shenanigans - Have Yourself A Merry Little Christmas
TTITLE10=Brent Rowan - Away In A Manger
EXTD=
EXTT0=
EXTT1=
EXTT2=
EXTT3=
EXTT4=
EXTT5=
EXTT6=
EXTT7=
EXTT8=
EXTT9=
EXTT10=
PLAYORDER=
